Coordinates
version=1
nRows=10
nColumns=22
inDegrees=yes

Units are S.I. units (second, meters, Newtons, ...)
If the header above contains a line with 'inDegrees', this indicates whether rotational values are in degrees (yes) or radians (no).

endheader
time	pelvis_tilt	pelvis_list	pelvis_rotation	pelvis_tx	pelvis_ty	pelvis_tz	hip_flexion_r	hip_adduction_r	hip_rotation_r	knee_angle_r	ankle_angle_r	subtalar_angle_r	hip_flexion_l	hip_adduction_l	hip_rotation_l	knee_angle_l	ankle_angle_l	subtalar_angle_l	lumbar_extension	lumbar_bending	lumbar_rotation
      0.01000000	      0.99404629	     -1.46697147	     -0.83874095	     -1.70275578	      1.08080416	     -0.32818275	     -2.81817900	      1.87120600	     -2.71198194	     -8.40616403	     10.52019805	     -2.37380609	     -2.25760150	     -0.34578043	     -2.21001853	    -11.56427039	     13.39105977	     -2.07885773	     -3.48747406	     -0.61133758	     -4.85911735
      0.02000000	      0.99356881	     -1.46968888	     -0.83363486	     -1.70267783	      1.08079722	     -0.32821489	     -2.82156530	      1.87312853	     -2.70755773	     -8.40888221	     10.52159330	     -2.37488723	     -2.26183822	     -0.34794517	     -2.21142140	    -11.56370603	     13.39181140	     -2.07904290	     -3.48069575	     -0.61263407	     -4.85651575
      0.03000000	      0.99243113	     -1.47270768	     -0.82803830	     -1.70258997	      1.08078713	     -0.32825075	     -2.82496748	      1.87531483	     -2.70419995	     -8.41101230	     10.52355401	     -2.37601454	     -2.26705239	     -0.35037409	     -2.21279736	    -11.56069642	     13.39330852	     -2.07936156	     -3.47297879	     -0.61573981	     -4.85287916
      0.04000000	      0.98636583	     -1.47819464	     -0.82571675	     -1.70246928	      1.08076914	     -0.32827850	     -2.82931696	      1.88057953	     -2.70034264	     -8.40390684	     10.53517752	     -2.38131237	     -2.28086838	     -0.35476393	     -2.21316395	    -11.53442793	     13.40241517	     -2.08113619	     -3.45689169	     -0.61984870	     -4.83811788
      0.05000000	      0.98668869	     -1.48049867	     -0.82079627	     -1.70236096	      1.08075974	     -0.32833678	     -2.83358952	      1.87995876	     -2.69842165	     -8.40901770	     10.53557564	     -2.38197287	     -2.28715958	     -0.35461624	     -2.21296224	    -11.53580515	     13.40301081	     -2.08141916	     -3.44794540	     -0.62212669	     -4.83565051
      0.06000000	      0.98419194	     -1.48030068	     -0.81642815	     -1.70222555	      1.08074528	     -0.32838733	     -2.83891698	      1.87744837	     -2.70312692	     -8.40868471	     10.54738821	     -2.38744503	     -2.30542155	     -0.35117465	     -2.20434769	    -11.51053416	     13.41197409	     -2.08445673	     -3.43194639	     -0.63219909	     -4.82186599
      0.07000000	      0.98460136	     -1.48292492	     -0.80849304	     -1.70211696	      1.08073601	     -0.32844753	     -2.84345638	      1.87790907	     -2.70164104	     -8.41468632	     10.54788921	     -2.38787865	     -2.31116151	     -0.35163851	     -2.20431943	    -11.51146137	     13.41228430	     -2.08484135	     -3.42352412	     -0.63783268	     -4.81988626
      0.08000000	      0.98474255	     -1.48541086	     -0.79958544	     -1.70200941	      1.08072574	     -0.32850771	     -2.84804620	      1.87845476	     -2.70178288	     -8.41985373	     10.54962435	     -2.38837294	     -2.31768756	     -0.35238692	     -2.20367581	    -11.50979420	     13.41355434	     -2.08543709	     -3.41393917	     -0.64502376	     -4.81740611
      0.09000000	      0.98879707	     -1.47298884	     -0.78109384	     -1.70188508	      1.08071815	     -0.32858856	     -2.85628405	      1.86208829	     -2.73464596	     -8.42772692	     10.57940131	     -2.39541875	     -2.34253294	     -0.33385520	     -2.16062267	    -11.48161130	     13.42065364	     -2.09502959	     -3.40699504	     -0.66985466	     -4.82196039
      0.10000000	      0.98984776	     -1.47634119	     -0.77438574	     -1.70178450	      1.08071208	     -0.32865187	     -2.86107632	      1.86283502	     -2.73429974	     -8.43236158	     10.57954387	     -2.39547740	     -2.34794009	     -0.33480236	     -2.16161089	    -11.48378105	     13.42058221	     -2.09543506	     -3.39715861	     -0.67489426	     -4.82131339
